<svg width="51" height="44" viewBox="0 0 51 44" fill="none" xmlns="http://www.w3.org/2000/svg">
<path fill-rule="evenodd" clip-rule="evenodd" d="M26.9272 0.238647C26.5476 0.396179 26.2028 0.627075 25.9125 0.918091C25.6215 1.20837 25.3906 1.55322 25.233 1.93286C25.0755 2.31256 24.9944 2.71954 24.9944 3.13062C24.9944 3.54163 25.0755 3.94861 25.233 4.32831C25.3906 4.70795 25.6215 5.0528 25.9125 5.34308L39.3301 18.7556H3.125C2.2962 18.7556 1.50134 19.0848 0.915283 19.6709C0.329224 20.257 0 21.0518 0 21.8806C0 22.7094 0.329224 23.5043 0.915283 24.0903C1.50134 24.6764 2.2962 25.0056 3.125 25.0056H39.3301L25.9125 38.4181C25.3257 39.0049 24.996 39.8007 24.996 40.6306C24.996 41.4604 25.3257 42.2563 25.9125 42.8431C26.4993 43.4299 27.2951 43.7595 28.125 43.7595C28.9548 43.7595 29.7507 43.4299 30.3375 42.8431L49.0875 24.0931C49.3785 23.8028 49.6094 23.4579 49.7669 23.0783C49.9244 22.6986 50.0056 22.2916 50.0056 21.8806C50.0056 21.4695 49.9244 21.0626 49.7669 20.6829C49.6094 20.3032 49.3785 19.9584 49.0875 19.6681L30.3375 0.918091C30.0472 0.627075 29.7023 0.396179 29.3227 0.238647C28.943 0.0811157 28.536 0 28.125 0C27.7139 0 27.3069 0.0811157 26.9272 0.238647Z" fill="#273038"/>
</svg>
