<svg width="43" height="38" viewBox="0 0 43 38" fill="none" xmlns="http://www.w3.org/2000/svg">
<path fill-rule="evenodd" clip-rule="evenodd" d="M19.8451 37.4238C20.1716 37.2884 20.4681 37.0898 20.7178 36.8396C20.968 36.5899 21.1665 36.2934 21.302 35.9669C21.4375 35.6405 21.5072 35.2905 21.5072 34.937C21.5072 34.5836 21.4375 34.2336 21.302 33.9071C21.1665 33.5806 20.968 33.2841 20.7178 33.0345L9.17989 21.501L40.3128 21.501C41.0255 21.501 41.709 21.2179 42.2129 20.7139C42.7169 20.21 43 19.5265 43 18.8138C43 18.1011 42.7169 17.4176 42.2129 16.9136C41.709 16.4097 41.0255 16.1266 40.3128 16.1266L9.17996 16.1266L20.7178 4.59315C21.2223 4.08856 21.5058 3.4042 21.5058 2.69061C21.5058 1.97701 21.2223 1.29265 20.7178 0.788069C20.2132 0.283483 19.5288 1.32069e-05 18.8152 1.31445e-05C18.1016 1.30821e-05 17.4173 0.283483 16.9127 0.788068L0.789469 16.9113C0.539217 17.1609 0.340673 17.4574 0.205202 17.7839C0.0697344 18.1104 1.67578e-06 18.4604 1.64488e-06 18.8138C1.61398e-06 19.1673 0.0697342 19.5173 0.205202 19.8437C0.340673 20.1702 0.539217 20.4667 0.789468 20.7164L16.9127 36.8396C17.1623 37.0898 17.4588 37.2884 17.7853 37.4238C18.1118 37.5593 18.4618 37.629 18.8152 37.629C19.1687 37.629 19.5187 37.5593 19.8451 37.4238Z" fill="#273038"/>
</svg>
