<svg width="128" height="48" viewBox="0 0 128 48" fill="none" xmlns="http://www.w3.org/2000/svg">
<path d="M73.6504 31V16.7812H78.2988C79.8418 16.7812 81.0007 17.1003 81.7754 17.7383C82.5566 18.3763 82.9473 19.3203 82.9473 20.5703C82.9473 21.2344 82.7585 21.8236 82.3809 22.3379C82.0033 22.8457 81.4889 23.2396 80.8379 23.5195C81.6061 23.7344 82.2116 24.1445 82.6543 24.75C83.1035 25.349 83.3281 26.0651 83.3281 26.8984C83.3281 28.1745 82.9147 29.1771 82.0879 29.9062C81.2611 30.6354 80.0924 31 78.582 31H73.6504ZM75.5254 24.3496V29.4668H78.6211C79.4935 29.4668 80.1803 29.2422 80.6816 28.793C81.1895 28.3372 81.4434 27.7122 81.4434 26.918C81.4434 25.2057 80.5124 24.3496 78.6504 24.3496H75.5254ZM75.5254 22.8457H78.3574C79.1777 22.8457 79.832 22.6406 80.3203 22.2305C80.8151 21.8203 81.0625 21.2637 81.0625 20.5605C81.0625 19.7793 80.8346 19.2129 80.3789 18.8613C79.9232 18.5033 79.2298 18.3242 78.2988 18.3242H75.5254V22.8457ZM92.3516 31C92.2474 30.7917 92.1628 30.4206 92.0977 29.8867C91.2578 30.7591 90.2552 31.1953 89.0898 31.1953C88.0482 31.1953 87.1921 30.9023 86.5215 30.3164C85.8574 29.724 85.5254 28.9753 85.5254 28.0703C85.5254 26.9701 85.9421 26.1172 86.7754 25.5117C87.6152 24.8997 88.7936 24.5938 90.3105 24.5938H92.0684V23.7637C92.0684 23.1322 91.8796 22.6309 91.502 22.2598C91.1243 21.8822 90.5677 21.6934 89.832 21.6934C89.1875 21.6934 88.6471 21.8561 88.2109 22.1816C87.7747 22.5072 87.5566 22.901 87.5566 23.3633H85.7402C85.7402 22.8359 85.9258 22.3281 86.2969 21.8398C86.6745 21.3451 87.1823 20.9544 87.8203 20.668C88.4648 20.3815 89.1712 20.2383 89.9395 20.2383C91.1569 20.2383 92.1107 20.5443 92.8008 21.1562C93.4909 21.7617 93.849 22.5983 93.875 23.666V28.5293C93.875 29.4993 93.9987 30.2708 94.2461 30.8438V31H92.3516ZM89.3535 29.623C89.9199 29.623 90.457 29.4766 90.9648 29.1836C91.4727 28.8906 91.8405 28.5098 92.0684 28.041V25.873H90.6523C88.4388 25.873 87.332 26.5208 87.332 27.8164C87.332 28.3828 87.5208 28.8255 87.8984 29.1445C88.276 29.4635 88.7611 29.623 89.3535 29.623ZM98.6699 31H96.8633V20.4336H98.6699V31ZM96.7168 17.6309C96.7168 17.3379 96.8047 17.0905 96.9805 16.8887C97.1628 16.6868 97.4297 16.5859 97.7812 16.5859C98.1328 16.5859 98.3997 16.6868 98.582 16.8887C98.7643 17.0905 98.8555 17.3379 98.8555 17.6309C98.8555 17.9238 98.7643 18.168 98.582 18.3633C98.3997 18.5586 98.1328 18.6562 97.7812 18.6562C97.4297 18.6562 97.1628 18.5586 96.9805 18.3633C96.8047 18.168 96.7168 17.9238 96.7168 17.6309ZM105.115 24.291L107.459 20.4336H109.568L106.111 25.6582L109.676 31H107.586L105.145 27.0449L102.703 31H100.604L104.168 25.6582L100.711 20.4336H102.801L105.115 24.291ZM118.016 31C117.911 30.7917 117.827 30.4206 117.762 29.8867C116.922 30.7591 115.919 31.1953 114.754 31.1953C113.712 31.1953 112.856 30.9023 112.186 30.3164C111.521 29.724 111.189 28.9753 111.189 28.0703C111.189 26.9701 111.606 26.1172 112.439 25.5117C113.279 24.8997 114.458 24.5938 115.975 24.5938H117.732V23.7637C117.732 23.1322 117.544 22.6309 117.166 22.2598C116.788 21.8822 116.232 21.6934 115.496 21.6934C114.852 21.6934 114.311 21.8561 113.875 22.1816C113.439 22.5072 113.221 22.901 113.221 23.3633H111.404C111.404 22.8359 111.59 22.3281 111.961 21.8398C112.339 21.3451 112.846 20.9544 113.484 20.668C114.129 20.3815 114.835 20.2383 115.604 20.2383C116.821 20.2383 117.775 20.5443 118.465 21.1562C119.155 21.7617 119.513 22.5983 119.539 23.666V28.5293C119.539 29.4993 119.663 30.2708 119.91 30.8438V31H118.016ZM115.018 29.623C115.584 29.623 116.121 29.4766 116.629 29.1836C117.137 28.8906 117.505 28.5098 117.732 28.041V25.873H116.316C114.103 25.873 112.996 26.5208 112.996 27.8164C112.996 28.3828 113.185 28.8255 113.562 29.1445C113.94 29.4635 114.425 29.623 115.018 29.623ZM127.479 22.0547C127.205 22.0091 126.909 21.9863 126.59 21.9863C125.405 21.9863 124.601 22.4909 124.178 23.5V31H122.371V20.4336H124.129L124.158 21.6543C124.751 20.7103 125.59 20.2383 126.678 20.2383C127.029 20.2383 127.296 20.2839 127.479 20.375V22.0547Z" fill="white"/>
<path d="M51.75 0C52.365 0 52.89 0.228571 53.325 0.685714C53.775 1.12762 54 1.66095 54 2.28571V45.7143C54 46.339 53.775 46.8724 53.325 47.3143C52.89 47.7714 52.365 48 51.75 48H15.75C15.135 48 14.61 47.7714 14.175 47.3143C13.725 46.8724 13.5 46.339 13.5 45.7143V37.7143H2.25C1.635 37.7143 1.11 37.4857 0.675 37.0286C0.225 36.5867 0 36.0533 0 35.4286V12.5714C0 11.9467 0.225 11.4133 0.675 10.9714C1.095 10.5143 1.62 10.2857 2.25 10.2857H13.5V2.28571C13.5 1.66095 13.725 1.12762 14.175 0.685714C14.61 0.228571 15.135 0 15.75 0H51.75ZM13.5 26.9257L16.695 33.0057H21.51L16.155 24.16L21.42 15.4743H16.785L13.86 20.96L13.7475 21.1429L13.6575 21.3486L12.2175 18.4229L10.7325 15.4743H5.8275L10.935 24.2057L5.355 33.0057H10.215L13.5 26.9257ZM32.0625 44.5714V37.7143H16.875V44.5714H32.0625ZM32.0625 34.2857V25.7143H27V34.2857H32.0625ZM32.0625 22.2857V13.7143H27V22.2857H32.0625ZM32.0625 10.2857V3.42857H16.875V10.2857H32.0625ZM50.625 44.5714V37.7143H35.4375V44.5714H50.625ZM50.625 34.2857V25.7143H35.4375V34.2857H50.625ZM50.625 22.2857V13.7143H35.4375V22.2857H50.625ZM50.625 10.2857V3.42857H35.4375V10.2857H50.625Z" fill="white"/>
</svg>
