<svg width="54" height="48" viewBox="0 0 54 48" fill="none" xmlns="http://www.w3.org/2000/svg">
<path d="M51.75 0C52.365 0 52.89 0.228571 53.325 0.685714C53.775 1.12762 54 1.66095 54 2.28571V45.7143C54 46.339 53.775 46.8724 53.325 47.3143C52.89 47.7714 52.365 48 51.75 48H15.75C15.135 48 14.61 47.7714 14.175 47.3143C13.725 46.8724 13.5 46.339 13.5 45.7143V37.7143H2.25C1.635 37.7143 1.11 37.4857 0.675 37.0286C0.225 36.5867 0 36.0533 0 35.4286V12.5714C0 11.9467 0.225 11.4133 0.675 10.9714C1.095 10.5143 1.62 10.2857 2.25 10.2857H13.5V2.28571C13.5 1.66095 13.725 1.12762 14.175 0.685714C14.61 0.228571 15.135 0 15.75 0H51.75ZM13.5 26.9257L16.695 33.0057H21.51L16.155 24.16L21.42 15.4743H16.785L13.86 20.96L13.7475 21.1429L13.6575 21.3486L12.2175 18.4229L10.7325 15.4743H5.8275L10.935 24.2057L5.355 33.0057H10.215L13.5 26.9257ZM32.0625 44.5714V37.7143H16.875V44.5714H32.0625ZM32.0625 34.2857V25.7143H27V34.2857H32.0625ZM32.0625 22.2857V13.7143H27V22.2857H32.0625ZM32.0625 10.2857V3.42857H16.875V10.2857H32.0625ZM50.625 44.5714V37.7143H35.4375V44.5714H50.625ZM50.625 34.2857V25.7143H35.4375V34.2857H50.625ZM50.625 22.2857V13.7143H35.4375V22.2857H50.625ZM50.625 10.2857V3.42857H35.4375V10.2857H50.625Z" fill="white"/>
</svg>
